<svg width="487" height="116" viewBox="0 0 487 116" fill="none" xmlns="http://www.w3.org/2000/svg">
<path d="M120.497 95.1667H122.425C123.279 95.1667 124.022 95.0015 124.656 94.671C125.289 94.3406 125.812 93.9045 126.225 93.3629C126.648 92.8122 126.96 92.188 127.162 91.4903C127.373 90.7835 127.478 90.0538 127.478 89.301C127.478 88.4106 127.359 87.6029 127.12 86.8777C126.882 86.1525 126.537 85.5329 126.088 85.0188C125.638 84.4956 125.087 84.0963 124.435 83.8209C123.793 83.5364 123.063 83.3941 122.246 83.3941H120.497V95.1667ZM122.163 81.6729C123.292 81.6729 124.307 81.8519 125.206 82.2099C126.106 82.5588 126.868 83.0636 127.492 83.7245C128.125 84.3763 128.607 85.1749 128.938 86.1204C129.268 87.0567 129.434 88.1123 129.434 89.2873C129.434 90.2787 129.291 91.2333 129.007 92.1513C128.722 93.0692 128.291 93.8816 127.712 94.5884C127.134 95.286 126.404 95.846 125.523 96.2682C124.642 96.6813 123.609 96.8878 122.425 96.8878H118.57V81.6729H122.163ZM134.101 81.6729V96.8878H132.174V81.6729H134.101ZM144.841 84.2753C144.373 83.9357 143.859 83.6786 143.299 83.5042C142.739 83.3298 142.184 83.2426 141.633 83.2426C141.247 83.2426 140.889 83.2931 140.559 83.3941C140.238 83.4951 139.953 83.6419 139.705 83.8347C139.467 84.0183 139.278 84.2432 139.141 84.5094C139.012 84.7664 138.948 85.051 138.948 85.3631C138.948 85.7303 139.026 86.0515 139.182 86.3269C139.347 86.5931 139.563 86.8318 139.829 87.0429C140.105 87.254 140.412 87.4468 140.752 87.6212C141.101 87.7864 141.459 87.9517 141.826 88.1169C142.321 88.3372 142.813 88.5759 143.299 88.8329C143.786 89.0807 144.226 89.3791 144.621 89.7279C145.016 90.0767 145.332 90.4944 145.571 90.9809C145.819 91.4674 145.943 92.0503 145.943 92.7296C145.943 93.3721 145.819 93.9642 145.571 94.5058C145.323 95.0382 144.983 95.4972 144.552 95.8827C144.121 96.2682 143.611 96.5712 143.024 96.7915C142.436 97.0026 141.798 97.1082 141.11 97.1082C140.274 97.1082 139.48 96.9705 138.728 96.6951C137.975 96.4197 137.296 96.0112 136.69 95.4696L137.75 94.0239C138.035 94.2442 138.31 94.4369 138.576 94.6022C138.842 94.7674 139.109 94.9051 139.375 95.0152C139.641 95.1254 139.916 95.208 140.201 95.2631C140.495 95.3182 140.802 95.3457 141.124 95.3457C141.537 95.3457 141.918 95.286 142.266 95.1667C142.615 95.0382 142.914 94.8638 143.161 94.6435C143.409 94.4232 143.602 94.1616 143.74 93.8586C143.877 93.5465 143.946 93.2115 143.946 92.8535C143.946 92.4037 143.859 92.0182 143.685 91.6969C143.51 91.3664 143.276 91.0819 142.982 90.8432C142.698 90.6045 142.372 90.3934 142.005 90.2098C141.638 90.0262 141.257 89.8472 140.862 89.6728C140.385 89.4617 139.912 89.2414 139.444 89.0119C138.985 88.7824 138.572 88.507 138.204 88.1857C137.837 87.8553 137.539 87.4652 137.309 87.0154C137.089 86.5656 136.979 86.0148 136.979 85.3631C136.979 84.7481 137.108 84.2019 137.365 83.7245C137.622 83.238 137.961 82.8296 138.383 82.4991C138.815 82.1595 139.306 81.9024 139.857 81.728C140.417 81.5536 140.995 81.4664 141.592 81.4664C142.335 81.4664 143.065 81.5766 143.781 81.7969C144.497 82.0172 145.135 82.3339 145.695 82.7469L144.841 84.2753ZM154.397 81.6729L159.216 96.8878H157.261L155.884 92.5368H150.431L149.055 96.8878H147.113L151.919 81.6729H154.397ZM150.858 90.8157H155.457L153.158 83.4216L150.858 90.8157ZM165.027 81.6729C165.945 81.6729 166.743 81.7601 167.423 81.9346C168.102 82.109 168.662 82.3614 169.102 82.6919C169.552 83.0223 169.883 83.4262 170.094 83.9035C170.314 84.3717 170.424 84.9041 170.424 85.5008C170.424 85.8496 170.374 86.1846 170.273 86.5059C170.181 86.818 170.048 87.1163 169.874 87.4009C169.699 87.6763 169.493 87.9287 169.254 88.1582C169.024 88.3785 168.772 88.5713 168.497 88.7365C169.369 89.1221 170.016 89.6361 170.438 90.2787C170.86 90.912 171.071 91.651 171.071 92.4955C171.071 93.0463 170.961 93.5878 170.741 94.1203C170.521 94.6435 170.199 95.1116 169.777 95.5247C169.355 95.9286 168.841 96.2591 168.235 96.5161C167.629 96.7639 166.941 96.8878 166.17 96.8878H161.034V81.6729H165.027ZM162.961 95.1667H165.646C166.216 95.1667 166.716 95.0979 167.147 94.9602C167.579 94.8133 167.937 94.6159 168.221 94.3681C168.515 94.1203 168.735 93.8265 168.882 93.4869C169.029 93.1472 169.102 92.7801 169.102 92.3853C169.102 91.4215 168.749 90.7468 168.042 90.3613C167.345 89.9666 166.321 89.7692 164.972 89.7692H162.961V95.1667ZM162.961 88.0894H166.431C166.697 88.0251 166.95 87.9195 167.189 87.7727C167.436 87.6258 167.652 87.4514 167.836 87.2494C168.028 87.0475 168.18 86.818 168.29 86.561C168.4 86.2948 168.455 86.0102 168.455 85.7073C168.455 84.1652 167.308 83.3941 165.013 83.3941H162.961V88.0894ZM175.739 81.6729V96.8878H173.811V81.6729H175.739ZM181.027 81.6729V95.1667H187.649V96.8878H179.099V81.6729H181.027ZM191.794 81.6729V96.8878H189.866V81.6729H191.794ZM204.475 81.6729V83.3941H200.138V96.8878H198.21V83.3941H193.859V81.6729H204.475ZM212.09 91.628V96.8878H210.162V91.628L205.109 81.6729H207.16L211.126 89.5902L215.091 81.6729H217.143L212.09 91.628ZM224.785 81.6729V96.8878H222.857V81.6729H224.785ZM230.361 81.6729L237.287 94.1891L237.094 93.4318V81.6729H239.022V96.8878H236.805L229.852 84.4543L230.072 85.2116V96.8878H228.145V81.6729H230.361ZM249.542 84.2753C249.074 83.9357 248.56 83.6786 248 83.5042C247.44 83.3298 246.884 83.2426 246.334 83.2426C245.948 83.2426 245.59 83.2931 245.26 83.3941C244.938 83.4951 244.654 83.6419 244.406 83.8347C244.167 84.0183 243.979 84.2432 243.841 84.5094C243.713 84.7664 243.649 85.051 243.649 85.3631C243.649 85.7303 243.727 86.0515 243.883 86.3269C244.048 86.5931 244.264 86.8318 244.53 87.0429C244.805 87.254 245.113 87.4468 245.452 87.6212C245.801 87.7864 246.159 87.9517 246.526 88.1169C247.022 88.3372 247.513 88.5759 248 88.8329C248.486 89.0807 248.927 89.3791 249.321 89.7279C249.716 90.0767 250.033 90.4944 250.272 90.9809C250.519 91.4674 250.643 92.0503 250.643 92.7296C250.643 93.3721 250.519 93.9642 250.272 94.5058C250.024 95.0382 249.684 95.4972 249.253 95.8827C248.821 96.2682 248.312 96.5712 247.724 96.7915C247.137 97.0026 246.499 97.1082 245.81 97.1082C244.975 97.1082 244.181 96.9705 243.428 96.6951C242.676 96.4197 241.996 96.0112 241.39 95.4696L242.451 94.0239C242.735 94.2442 243.011 94.4369 243.277 94.6022C243.543 94.7674 243.809 94.9051 244.075 95.0152C244.342 95.1254 244.617 95.208 244.902 95.2631C245.195 95.3182 245.503 95.3457 245.824 95.3457C246.237 95.3457 246.618 95.286 246.967 95.1667C247.316 95.0382 247.614 94.8638 247.862 94.6435C248.11 94.4232 248.303 94.1616 248.44 93.8586C248.578 93.5465 248.647 93.2115 248.647 92.8535C248.647 92.4037 248.56 92.0182 248.385 91.6969C248.211 91.3664 247.977 91.0819 247.683 90.8432C247.398 90.6045 247.073 90.3934 246.705 90.2098C246.338 90.0262 245.957 89.8472 245.562 89.6728C245.085 89.4617 244.612 89.2414 244.144 89.0119C243.685 88.7824 243.272 88.507 242.905 88.1857C242.538 87.8553 242.24 87.4652 242.01 87.0154C241.79 86.5656 241.68 86.0148 241.68 85.3631C241.68 84.7481 241.808 84.2019 242.065 83.7245C242.322 83.238 242.662 82.8296 243.084 82.4991C243.515 82.1595 244.007 81.9024 244.557 81.728C245.117 81.5536 245.696 81.4664 246.292 81.4664C247.036 81.4664 247.766 81.5766 248.482 81.7969C249.198 82.0172 249.836 82.3339 250.395 82.7469L249.542 84.2753ZM254.912 81.6729V92.2339C254.912 92.7479 255.008 93.2023 255.201 93.597C255.394 93.9826 255.646 94.3084 255.958 94.5746C256.279 94.8317 256.642 95.0244 257.046 95.1529C257.45 95.2814 257.868 95.3457 258.299 95.3457C258.73 95.3457 259.148 95.2814 259.552 95.1529C259.965 95.0244 260.328 94.8317 260.64 94.5746C260.961 94.3084 261.218 93.9826 261.411 93.597C261.604 93.2023 261.7 92.7479 261.7 92.2339V81.6729H263.628V92.289C263.628 93.1518 263.481 93.8908 263.187 94.5058C262.893 95.1116 262.499 95.6073 262.003 95.9929C261.507 96.3784 260.938 96.663 260.295 96.8465C259.653 97.0209 258.987 97.1082 258.299 97.1082C257.61 97.1082 256.945 97.0209 256.302 96.8465C255.669 96.663 255.105 96.3784 254.609 95.9929C254.113 95.6073 253.718 95.1116 253.425 94.5058C253.131 93.8908 252.984 93.1518 252.984 92.289V81.6729H254.912ZM271.269 81.6729C272.178 81.6729 272.959 81.7969 273.61 82.0447C274.271 82.2834 274.813 82.6092 275.235 83.0223C275.666 83.4262 275.983 83.8944 276.185 84.4268C276.387 84.9592 276.488 85.5191 276.488 86.1066C276.488 87.0796 276.199 87.9333 275.621 88.6677C275.042 89.402 274.179 89.9253 273.032 90.2374L277.355 96.7915V96.8878H275.235L271.022 90.4577H268.543V96.8878H266.616V81.6729H271.269ZM268.543 88.7503H271.421C271.917 88.7503 272.357 88.6768 272.743 88.53C273.128 88.3739 273.454 88.172 273.72 87.9241C273.987 87.6763 274.189 87.3963 274.326 87.0842C274.464 86.7721 274.533 86.4508 274.533 86.1204C274.533 85.7807 274.469 85.4503 274.34 85.129C274.211 84.7985 274.01 84.5048 273.734 84.2478C273.468 83.9908 273.119 83.7842 272.688 83.6282C272.265 83.4721 271.761 83.3941 271.173 83.3941H268.543V88.7503ZM285.204 81.6729L290.023 96.8878H288.068L286.691 92.5368H281.238L279.861 96.8878H277.92L282.725 81.6729H285.204ZM281.665 90.8157H286.264L283.965 83.4216L281.665 90.8157ZM294.057 81.6729L300.983 94.1891L300.791 93.4318V81.6729H302.718V96.8878H300.501L293.548 84.4543L293.768 85.2116V96.8878H291.841V81.6729H294.057ZM316.047 95.208C315.358 95.8322 314.619 96.305 313.83 96.6262C313.04 96.9475 312.214 97.1082 311.351 97.1082C310.525 97.1082 309.74 96.9337 308.997 96.5849C308.253 96.2361 307.602 95.7267 307.042 95.0566C306.491 94.3773 306.05 93.5511 305.72 92.5781C305.399 91.5959 305.238 90.476 305.238 89.2184C305.238 88.0343 305.385 86.9649 305.679 86.0102C305.972 85.0464 306.376 84.2294 306.89 83.5593C307.413 82.8892 308.024 82.3752 308.722 82.0172C309.419 81.65 310.172 81.4664 310.98 81.4664C311.613 81.4664 312.21 81.572 312.77 81.7831C313.339 81.985 313.853 82.288 314.312 82.6919C314.771 83.0866 315.175 83.5777 315.524 84.1652C315.872 84.7435 316.148 85.4136 316.35 86.1755L314.56 86.6849C314.229 85.5283 313.766 84.67 313.169 84.1101C312.582 83.5501 311.866 83.2702 311.021 83.2702C310.461 83.2702 309.947 83.417 309.479 83.7108C309.011 83.9953 308.607 84.3992 308.267 84.9225C307.937 85.4365 307.675 86.0561 307.482 86.7813C307.299 87.5065 307.207 88.3005 307.207 89.1634C307.207 90.1456 307.317 91.0176 307.537 91.7795C307.758 92.5414 308.061 93.1839 308.446 93.7072C308.832 94.2304 309.281 94.6297 309.796 94.9051C310.319 95.1805 310.874 95.3182 311.462 95.3182C312.067 95.3182 312.66 95.1988 313.238 94.9602C313.816 94.7123 314.353 94.3406 314.849 93.8449L316.047 95.208ZM327.241 81.6729V83.3941H320.646V88.0343H326.704V89.7554H320.646V95.1667H327.737V96.8878H318.718V81.6729H327.241ZM342.662 81.6729V83.3941H336.067V88.0343H342.125V89.7554H336.067V96.8878H334.139V81.6729H342.662ZM350.194 83.2702C349.662 83.2702 349.189 83.362 348.776 83.5455C348.372 83.7291 348.019 83.977 347.716 84.2891C347.422 84.6012 347.174 84.9638 346.972 85.3768C346.77 85.7899 346.605 86.2259 346.477 86.6849C346.357 87.1439 346.27 87.612 346.215 88.0894C346.169 88.5667 346.146 89.0257 346.146 89.4663C346.146 90.2282 346.21 90.9625 346.339 91.6693C346.477 92.367 346.701 92.9866 347.014 93.5282C347.326 94.0698 347.739 94.5058 348.253 94.8362C348.776 95.1575 349.423 95.3182 350.194 95.3182C350.965 95.3182 351.608 95.1575 352.122 94.8362C352.645 94.5058 353.063 94.0698 353.375 93.5282C353.687 92.9866 353.907 92.367 354.036 91.6693C354.173 90.9625 354.242 90.2282 354.242 89.4663C354.242 89.0257 354.215 88.5667 354.16 88.0894C354.114 87.612 354.027 87.1439 353.898 86.6849C353.779 86.2259 353.618 85.7899 353.416 85.3768C353.214 84.9638 352.962 84.6012 352.659 84.2891C352.365 83.977 352.012 83.7291 351.599 83.5455C351.195 83.362 350.727 83.2702 350.194 83.2702ZM350.194 81.4664C351.241 81.4664 352.145 81.6959 352.907 82.1549C353.669 82.6138 354.293 83.2197 354.779 83.9724C355.275 84.7159 355.638 85.5604 355.867 86.5059C356.106 87.4422 356.225 88.3923 356.225 89.3561C356.225 90.678 356.087 91.8254 355.812 92.7984C355.546 93.7714 355.156 94.5792 354.642 95.2218C354.128 95.8552 353.494 96.3279 352.741 96.64C351.998 96.9521 351.149 97.1082 350.194 97.1082C349.24 97.1082 348.39 96.9521 347.647 96.64C346.903 96.3279 346.275 95.8552 345.761 95.2218C345.246 94.5792 344.852 93.7714 344.576 92.7984C344.31 91.8254 344.177 90.678 344.177 89.3561C344.177 88.3923 344.292 87.4422 344.521 86.5059C344.76 85.5604 345.123 84.7159 345.609 83.9724C346.105 83.2197 346.729 82.6138 347.482 82.1549C348.244 81.6959 349.148 81.4664 350.194 81.4664ZM363.413 81.6729C364.321 81.6729 365.102 81.7969 365.753 82.0447C366.414 82.2834 366.956 82.6092 367.378 83.0223C367.81 83.4262 368.126 83.8944 368.328 84.4268C368.53 84.9592 368.631 85.5191 368.631 86.1066C368.631 87.0796 368.342 87.9333 367.764 88.6677C367.185 89.402 366.322 89.9253 365.175 90.2374L369.499 96.7915V96.8878H367.378L363.165 90.4577H360.686V96.8878H358.759V81.6729H363.413ZM360.686 88.7503H363.564C364.06 88.7503 364.5 88.6768 364.886 88.53C365.271 88.3739 365.597 88.172 365.863 87.9241C366.13 87.6763 366.332 87.3963 366.469 87.0842C366.607 86.7721 366.676 86.4508 366.676 86.1204C366.676 85.7807 366.612 85.4503 366.483 85.129C366.355 84.7985 366.153 84.5048 365.877 84.2478C365.611 83.9908 365.262 83.7842 364.831 83.6282C364.409 83.4721 363.904 83.3941 363.316 83.3941H360.686V88.7503ZM379.88 81.6729C380.771 81.6729 381.551 81.8106 382.221 82.086C382.891 82.3522 383.447 82.7102 383.887 83.16C384.337 83.6098 384.672 84.1239 384.892 84.7022C385.122 85.2713 385.237 85.8588 385.237 86.4646C385.237 87.0704 385.122 87.6625 384.892 88.2408C384.672 88.8191 384.337 89.3332 383.887 89.783C383.447 90.2236 382.891 90.5816 382.221 90.857C381.551 91.1232 380.771 91.2563 379.88 91.2563H377.182V96.8878H375.254V81.6729H379.88ZM377.182 89.5351H379.784C380.372 89.5351 380.881 89.4525 381.312 89.2873C381.753 89.1129 382.116 88.8834 382.4 88.5988C382.694 88.3143 382.914 87.9884 383.061 87.6212C383.208 87.2449 383.281 86.8593 383.281 86.4646C383.281 86.0699 383.208 85.6889 383.061 85.3218C382.914 84.9546 382.694 84.6287 382.4 84.3442C382.116 84.0596 381.753 83.8301 381.312 83.6557C380.881 83.4813 380.372 83.3941 379.784 83.3941H377.182V89.5351ZM389.161 81.6729V88.0343H396.183V81.6729H398.111V96.8878H396.183V89.7554H389.161V96.8878H387.233V81.6729H389.161ZM406.73 91.628V96.8878H404.803V91.628L399.749 81.6729H401.801L405.766 89.5902L409.732 81.6729H411.784L406.73 91.628ZM420.802 84.2753C420.334 83.9357 419.82 83.6786 419.26 83.5042C418.7 83.3298 418.145 83.2426 417.594 83.2426C417.209 83.2426 416.851 83.2931 416.52 83.3941C416.199 83.4951 415.914 83.6419 415.667 83.8347C415.428 84.0183 415.24 84.2432 415.102 84.5094C414.973 84.7664 414.909 85.051 414.909 85.3631C414.909 85.7303 414.987 86.0515 415.143 86.3269C415.309 86.5931 415.524 86.8318 415.79 87.0429C416.066 87.254 416.373 87.4468 416.713 87.6212C417.062 87.7864 417.42 87.9517 417.787 88.1169C418.283 88.3372 418.774 88.5759 419.26 88.8329C419.747 89.0807 420.187 89.3791 420.582 89.7279C420.977 90.0767 421.293 90.4944 421.532 90.9809C421.78 91.4674 421.904 92.0503 421.904 92.7296C421.904 93.3721 421.78 93.9642 421.532 94.5058C421.284 95.0382 420.945 95.4972 420.513 95.8827C420.082 96.2682 419.572 96.5712 418.985 96.7915C418.397 97.0026 417.759 97.1082 417.071 97.1082C416.236 97.1082 415.442 96.9705 414.689 96.6951C413.936 96.4197 413.257 96.0112 412.651 95.4696L413.711 94.0239C413.996 94.2442 414.271 94.4369 414.537 94.6022C414.804 94.7674 415.07 94.9051 415.336 95.0152C415.602 95.1254 415.878 95.208 416.162 95.2631C416.456 95.3182 416.763 95.3457 417.085 95.3457C417.498 95.3457 417.879 95.286 418.228 95.1667C418.576 95.0382 418.875 94.8638 419.123 94.6435C419.37 94.4232 419.563 94.1616 419.701 93.8586C419.839 93.5465 419.907 93.2115 419.907 92.8535C419.907 92.4037 419.82 92.0182 419.646 91.6969C419.471 91.3664 419.237 91.0819 418.944 90.8432C418.659 90.6045 418.333 90.3934 417.966 90.2098C417.599 90.0262 417.218 89.8472 416.823 89.6728C416.346 89.4617 415.873 89.2414 415.405 89.0119C414.946 88.7824 414.533 88.507 414.166 88.1857C413.798 87.8553 413.5 87.4652 413.271 87.0154C413.05 86.5656 412.94 86.0148 412.94 85.3631C412.94 84.7481 413.069 84.2019 413.326 83.7245C413.583 83.238 413.922 82.8296 414.345 82.4991C414.776 82.1595 415.267 81.9024 415.818 81.728C416.378 81.5536 416.956 81.4664 417.553 81.4664C418.296 81.4664 419.026 81.5766 419.742 81.7969C420.458 82.0172 421.096 82.3339 421.656 82.7469L420.802 84.2753ZM426.558 81.6729V96.8878H424.63V81.6729H426.558ZM440.107 95.208C439.418 95.8322 438.679 96.305 437.89 96.6262C437.1 96.9475 436.274 97.1082 435.411 97.1082C434.585 97.1082 433.8 96.9337 433.057 96.5849C432.313 96.2361 431.662 95.7267 431.102 95.0566C430.551 94.3773 430.11 93.5511 429.78 92.5781C429.459 91.5959 429.298 90.476 429.298 89.2184C429.298 88.0343 429.445 86.9649 429.739 86.0102C430.032 85.0464 430.436 84.2294 430.95 83.5593C431.473 82.8892 432.084 82.3752 432.782 82.0172C433.479 81.65 434.232 81.4664 435.04 81.4664C435.673 81.4664 436.27 81.572 436.83 81.7831C437.399 81.985 437.913 82.288 438.372 82.6919C438.831 83.0866 439.235 83.5777 439.583 84.1652C439.932 84.7435 440.208 85.4136 440.41 86.1755L438.62 86.6849C438.289 85.5283 437.826 84.67 437.229 84.1101C436.641 83.5501 435.925 83.2702 435.081 83.2702C434.521 83.2702 434.007 83.417 433.539 83.7108C433.071 83.9953 432.667 84.3992 432.327 84.9225C431.997 85.4365 431.735 86.0561 431.542 86.7813C431.359 87.5065 431.267 88.3005 431.267 89.1634C431.267 90.1456 431.377 91.0176 431.597 91.7795C431.818 92.5414 432.121 93.1839 432.506 93.7072C432.892 94.2304 433.341 94.6297 433.856 94.9051C434.379 95.1805 434.934 95.3182 435.522 95.3182C436.127 95.3182 436.72 95.1988 437.298 94.9602C437.876 94.7123 438.413 94.3406 438.909 93.8449L440.107 95.208ZM444.926 81.6729V96.8878H442.998V81.6729H444.926ZM454.234 81.6729L459.053 96.8878H457.098L455.721 92.5368H450.268L448.891 96.8878H446.95L451.755 81.6729H454.234ZM450.695 90.8157H455.294L452.995 83.4216L450.695 90.8157ZM463.087 81.6729L470.013 94.1891L469.821 93.4318V81.6729H471.748V96.8878H469.531L462.578 84.4543L462.798 85.2116V96.8878H460.871V81.6729H463.087ZM482.268 84.2753C481.8 83.9357 481.286 83.6786 480.726 83.5042C480.166 83.3298 479.61 83.2426 479.06 83.2426C478.674 83.2426 478.316 83.2931 477.986 83.3941C477.664 83.4951 477.38 83.6419 477.132 83.8347C476.893 84.0183 476.705 84.2432 476.567 84.5094C476.439 84.7664 476.375 85.051 476.375 85.3631C476.375 85.7303 476.453 86.0515 476.609 86.3269C476.774 86.5931 476.99 86.8318 477.256 87.0429C477.531 87.254 477.839 87.4468 478.178 87.6212C478.527 87.7864 478.885 87.9517 479.252 88.1169C479.748 88.3372 480.239 88.5759 480.726 88.8329C481.212 89.0807 481.653 89.3791 482.048 89.7279C482.442 90.0767 482.759 90.4944 482.998 90.9809C483.245 91.4674 483.369 92.0503 483.369 92.7296C483.369 93.3721 483.245 93.9642 482.998 94.5058C482.75 95.0382 482.41 95.4972 481.979 95.8827C481.547 96.2682 481.038 96.5712 480.45 96.7915C479.863 97.0026 479.225 97.1082 478.536 97.1082C477.701 97.1082 476.907 96.9705 476.154 96.6951C475.402 96.4197 474.722 96.0112 474.117 95.4696L475.177 94.0239C475.461 94.2442 475.737 94.4369 476.003 94.6022C476.269 94.7674 476.535 94.9051 476.801 95.0152C477.068 95.1254 477.343 95.208 477.628 95.2631C477.921 95.3182 478.229 95.3457 478.55 95.3457C478.963 95.3457 479.344 95.286 479.693 95.1667C480.042 95.0382 480.34 94.8638 480.588 94.6435C480.836 94.4232 481.029 94.1616 481.166 93.8586C481.304 93.5465 481.373 93.2115 481.373 92.8535C481.373 92.4037 481.286 92.0182 481.111 91.6969C480.937 91.3664 480.703 91.0819 480.409 90.8432C480.124 90.6045 479.799 90.3934 479.431 90.2098C479.064 90.0262 478.683 89.8472 478.289 89.6728C477.811 89.4617 477.338 89.2414 476.87 89.0119C476.411 88.7824 475.998 88.507 475.631 88.1857C475.264 87.8553 474.966 87.4652 474.736 87.0154C474.516 86.5656 474.406 86.0148 474.406 85.3631C474.406 84.7481 474.534 84.2019 474.791 83.7245C475.048 83.238 475.388 82.8296 475.81 82.4991C476.242 82.1595 476.733 81.9024 477.283 81.728C477.843 81.5536 478.422 81.4664 479.018 81.4664C479.762 81.4664 480.492 81.5766 481.208 81.7969C481.924 82.0172 482.562 82.3339 483.122 82.7469L482.268 84.2753Z" fill="#737373"/>
<path d="M120.39 68.4771C122.177 68.4771 123.57 68.0566 124.569 67.2156C125.567 66.3747 126.067 65.0081 126.067 63.1159V26.0606C126.067 24.1684 125.567 22.8018 124.569 21.9608C123.57 21.1198 122.177 20.6994 120.39 20.6994C120.022 20.6994 119.733 20.5942 119.523 20.384C119.365 20.1738 119.26 19.9372 119.208 19.6744C119.155 19.4116 119.155 19.1488 119.208 18.886C119.313 18.5706 119.444 18.3341 119.602 18.1764H146.25C148.51 18.1764 150.744 18.4392 152.952 18.9649C155.212 19.4905 157.235 20.384 159.022 21.6455C160.809 22.9069 162.255 24.5889 163.359 26.6913C164.462 28.7937 165.014 31.4218 165.014 34.5754C165.014 37.6239 164.357 40.252 163.043 42.4595C161.729 44.6671 160.074 46.4804 158.076 47.8995C156.079 49.3187 153.898 50.3699 151.532 51.0532C149.22 51.6839 147.038 51.9993 144.989 51.9993C143.359 51.9993 141.782 51.7628 140.258 51.2897C138.734 50.8167 137.236 50.2122 135.764 49.4764V63.1947C135.764 65.0869 136.237 66.4535 137.183 67.2945C138.182 68.0829 139.575 68.4771 141.362 68.4771C141.73 68.4771 141.993 68.5822 142.15 68.7924C142.361 69.0027 142.492 69.2392 142.545 69.502C142.597 69.7648 142.571 70.0539 142.466 70.3693C142.413 70.6321 142.308 70.8423 142.15 71H119.602C119.444 70.8423 119.313 70.6321 119.208 70.3693C119.155 70.0539 119.155 69.7648 119.208 69.502C119.26 69.2392 119.365 69.0027 119.523 68.7924C119.733 68.5822 120.022 68.4771 120.39 68.4771ZM135.764 25.5875V46.3227C136.973 46.7432 138.208 47.0586 139.47 47.2688C140.784 47.4265 142.098 47.5053 143.412 47.5053C144.936 47.5053 146.329 47.2688 147.59 46.7958C148.904 46.3227 150.034 45.5869 150.981 44.5882C151.927 43.5896 152.662 42.2755 153.188 40.6462C153.766 39.0168 154.055 37.072 154.055 34.8119C154.055 32.289 153.766 30.1866 153.188 28.5046C152.662 26.7701 151.9 25.4035 150.902 24.4049C149.903 23.3537 148.747 22.6178 147.433 22.1973C146.171 21.7243 144.778 21.4878 143.254 21.4878H138.208C137.578 21.4878 137.078 21.6192 136.71 21.882C136.395 22.0922 136.158 22.4076 136.001 22.8281C135.843 23.196 135.764 23.6428 135.764 24.1684C135.764 24.6414 135.764 25.1145 135.764 25.5875ZM197.788 17.388C200.153 17.388 202.308 17.5457 204.253 17.8611C206.198 18.1239 207.88 18.4655 209.299 18.886C210.771 19.3065 211.98 19.7795 212.926 20.3052C213.924 20.7782 214.608 21.225 214.975 21.6455C215.186 21.8557 215.422 22.2762 215.685 22.9069C215.948 23.5376 216.211 24.2735 216.473 25.1145C216.736 25.9554 216.973 26.849 217.183 27.7951C217.393 28.6886 217.525 29.5033 217.577 30.2391C217.577 30.3443 217.577 30.4757 217.577 30.6333C217.577 31.2641 217.341 31.816 216.868 32.289C216.395 32.7621 215.79 32.9986 215.054 32.9986C214.949 32.9986 214.87 32.9986 214.818 32.9986C214.765 32.946 214.686 32.9197 214.581 32.9197C212.374 29.3982 209.798 26.5336 206.855 24.3261C203.964 22.1185 200.889 21.0147 197.63 21.0147H197C196.789 21.0147 196.553 21.041 196.29 21.0936C193.662 21.3038 191.376 22.0659 189.431 23.38C187.486 24.6414 185.909 26.3496 184.701 28.5046C183.492 30.6596 182.677 32.9986 182.256 35.5215C181.836 37.9918 181.626 40.3834 181.626 42.696C181.626 43.6947 181.652 44.7196 181.705 45.7708C181.915 49.1347 182.44 52.2095 183.281 54.9953C184.175 57.7284 185.331 60.0674 186.75 62.0121C188.17 63.9569 189.799 65.4548 191.639 66.5061C193.531 67.5573 195.607 68.0829 197.867 68.0829H198.892C201.835 67.9252 204.122 67.0317 205.751 65.4023C207.433 63.7729 208.274 61.8281 208.274 59.568V54.8376C208.274 53.471 208.037 52.3672 207.564 51.5262C207.091 50.6853 206.461 50.002 205.672 49.4764C204.884 48.9508 203.964 48.6091 202.913 48.4514C201.914 48.2412 200.837 48.1361 199.68 48.1361C199.312 48.1361 199.023 48.031 198.813 47.8207C198.655 47.6105 198.55 47.4265 198.498 47.2688C198.498 47.0586 198.498 46.9009 198.498 46.7958C198.498 46.6381 198.524 46.4541 198.577 46.2439C198.629 45.9811 198.734 45.7708 198.892 45.6132H223.411C223.569 45.7708 223.674 45.9811 223.727 46.2439C223.779 46.4541 223.806 46.6381 223.806 46.7958C223.806 46.9009 223.779 47.0586 223.727 47.2688C223.727 47.4265 223.622 47.6105 223.411 47.8207C223.254 48.031 222.991 48.1361 222.623 48.1361C220.836 48.1361 219.627 48.6091 218.996 49.5552C218.366 50.4487 218.05 51.7365 218.05 53.4184V64.1408C218.05 64.9292 217.446 65.7965 216.237 66.7426C215.081 67.6361 213.556 68.4508 211.664 69.1867C209.772 69.9225 207.643 70.527 205.278 71C202.965 71.5256 200.653 71.7884 198.34 71.7884C194.398 71.7884 190.745 71.2102 187.381 70.0539C184.017 68.8976 181.074 67.2156 178.551 65.0081C176.081 62.748 174.136 60.0148 172.717 56.8086C171.35 53.5498 170.667 49.8706 170.667 45.7708C170.667 41.6711 171.376 37.8867 172.795 34.4177C174.215 30.9487 176.133 27.9527 178.551 25.4298C181.021 22.9069 183.912 20.9359 187.223 19.5167C190.535 18.0976 194.056 17.388 197.788 17.388ZM222.954 18.1764H247.868C248.025 18.3341 248.104 18.5444 248.104 18.8072C248.157 19.07 248.13 19.3591 248.025 19.6744C247.92 19.9372 247.736 20.1738 247.473 20.384C247.263 20.5942 246.974 20.6994 246.606 20.6994C245.555 20.6994 244.583 20.7519 243.689 20.857C242.848 20.9622 242.191 21.1987 241.718 21.5666C241.245 21.882 241.008 22.355 241.008 22.9858C241.008 23.6165 241.324 24.4312 241.955 25.4298L253.071 45.219L263.005 26.1394C264.056 24.2998 264.109 22.9332 263.163 22.0397C262.269 21.1461 260.719 20.6994 258.511 20.6994H257.88C257.513 20.6994 257.223 20.5942 257.013 20.384C256.803 20.1738 256.645 19.9372 256.54 19.6744C256.435 19.4116 256.382 19.1488 256.382 18.886C256.435 18.5706 256.54 18.3341 256.698 18.1764H276.881C277.039 18.3341 277.118 18.5444 277.118 18.8072C277.17 19.07 277.144 19.3591 277.039 19.6744C276.934 19.9372 276.776 20.1738 276.566 20.384C276.356 20.5942 276.066 20.6994 275.699 20.6994C274.122 20.6994 272.676 21.1198 271.362 21.9608C270.048 22.7492 268.866 24.1421 267.814 26.1394L255.121 48.688V63.1947C255.121 65.0869 255.62 66.4535 256.619 67.2945C257.618 68.0829 259.011 68.4771 260.798 68.4771C261.166 68.4771 261.428 68.5822 261.586 68.7924C261.796 69.0027 261.928 69.2392 261.98 69.502C262.033 69.7648 262.006 70.0539 261.901 70.3693C261.849 70.6321 261.744 70.8423 261.586 71H239.037C238.88 70.8423 238.748 70.6321 238.643 70.3693C238.591 70.0539 238.591 69.7648 238.643 69.502C238.696 69.2392 238.801 69.0027 238.959 68.7924C239.169 68.5822 239.458 68.4771 239.826 68.4771C241.613 68.4771 242.979 68.0566 243.926 67.2156C244.924 66.3747 245.424 65.0081 245.424 63.1159V50.8167L231.074 26.1394C230.391 25.1407 229.787 24.2998 229.261 23.6165C228.788 22.9332 228.289 22.3813 227.763 21.9608C227.238 21.5403 226.686 21.225 226.107 21.0147C225.529 20.8045 224.846 20.6994 224.058 20.6994C223.69 20.6994 223.401 20.5942 223.19 20.384C222.98 20.1738 222.822 19.9372 222.717 19.6744C222.665 19.3591 222.638 19.07 222.638 18.8072C222.691 18.5444 222.796 18.3341 222.954 18.1764ZM294.093 25.9817C294.093 24.6151 293.673 23.7479 292.832 23.38C291.991 22.9595 291.018 22.7492 289.915 22.7492C289.074 22.7492 288.259 22.8018 287.471 22.9069C286.682 23.012 286.025 23.0909 285.499 23.1434V20.7782C285.499 20.3052 285.736 20.0424 286.209 19.9898C286.892 19.8321 287.891 19.6481 289.205 19.4379C290.519 19.2277 291.912 19.0174 293.384 18.8072C294.855 18.5444 296.248 18.3078 297.562 18.0976C298.929 17.8874 299.954 17.7297 300.637 17.6246C300.9 17.572 301.136 17.5457 301.347 17.5457C301.557 17.4932 301.767 17.4669 301.977 17.4669C302.555 17.4669 303.002 17.6246 303.318 17.9399C303.633 18.2027 303.764 18.7283 303.712 19.5167V63.4313C303.712 64.4299 303.922 65.2972 304.343 66.033C304.763 66.7163 305.315 67.2682 305.998 67.6887C306.734 68.0566 307.522 68.3457 308.363 68.5559C309.257 68.7136 310.124 68.7924 310.965 68.7924C311.333 68.7924 311.596 68.8713 311.754 69.029C311.964 69.1867 312.095 69.3969 312.148 69.6597C312.2 69.9225 312.174 70.1853 312.069 70.4481C312.016 70.6584 311.911 70.8423 311.754 71H286.13C285.815 70.7372 285.683 70.2904 285.736 69.6597C285.841 69.029 286.235 68.7399 286.919 68.7924C287.812 68.7924 288.679 68.7136 289.52 68.5559C290.361 68.3457 291.123 68.0303 291.807 67.6098C292.49 67.1893 293.042 66.6375 293.462 65.9542C293.883 65.2183 294.093 64.3511 294.093 63.3524V25.9817ZM324.595 65.6388C324.595 64.062 325.094 62.7742 326.093 61.7756C327.091 60.7769 328.379 60.2776 329.956 60.2776C331.533 60.2776 332.821 60.7769 333.819 61.7756C334.818 62.7742 335.317 64.062 335.317 65.6388C335.317 67.2156 334.818 68.5034 333.819 69.502C332.821 70.5007 331.533 71 329.956 71C328.379 71 327.091 70.5007 326.093 69.502C325.094 68.5034 324.595 67.2156 324.595 65.6388ZM359.613 71.7884C357.406 71.7884 355.251 71.4468 353.148 70.7635C351.098 70.0276 349.259 68.9501 347.629 67.531C346.053 66.0593 344.765 64.2197 343.766 62.0121C342.768 59.8046 342.268 57.2028 342.268 54.2068C342.268 51.5262 342.689 49.0296 343.53 46.7169C344.371 44.3517 345.553 42.3018 347.077 40.5673C348.602 38.8328 350.468 37.4662 352.675 36.4676C354.883 35.4689 357.327 34.9696 360.007 34.9696C362.215 34.9696 364.133 35.285 365.763 35.9157C367.445 36.4939 368.864 37.2297 370.02 38.1232C371.177 39.0168 372.096 39.9892 372.78 41.0404C373.516 42.039 374.041 42.9588 374.357 43.7998C374.672 44.6933 374.83 45.4555 374.83 46.0862C374.83 46.7695 374.54 47.4002 373.962 47.9784C373.437 48.504 372.569 48.7668 371.361 48.7668C370.467 48.7668 369.521 48.6091 368.522 48.2938C367.576 47.9784 366.735 47.5579 365.999 47.0323C365.789 45.876 365.526 44.7459 365.211 43.6421C364.948 42.5384 364.554 41.566 364.028 40.725C363.503 39.884 362.793 39.227 361.9 38.754C361.059 38.2284 359.929 37.9656 358.509 37.9656C357.195 38.1232 356.039 38.7277 355.04 39.7789C354.042 40.8301 353.227 42.1704 352.596 43.7998C352.018 45.3766 351.677 46.7958 351.571 48.0572C351.466 49.2661 351.414 50.1597 351.414 50.7378C351.414 52.1044 351.545 53.4447 351.808 54.7587C352.123 56.2304 352.623 57.6496 353.306 59.0161C353.989 60.3827 354.83 61.5916 355.829 62.6428C356.88 63.6415 358.063 64.4562 359.377 65.0869C360.743 65.6651 362.241 65.9542 363.871 65.9542C365.658 65.9542 367.287 65.4023 368.759 64.2985C370.283 63.1422 371.518 61.5391 372.464 59.4892C372.675 59.4892 372.911 59.568 373.174 59.7257C373.489 59.8308 373.752 60.0148 373.962 60.2776C374.225 60.4878 374.409 60.7244 374.514 60.9872C374.619 61.1974 374.672 61.3551 374.672 61.4602C374.672 61.6179 374.646 61.7493 374.593 61.8544C373.332 65.1132 371.334 67.5836 368.601 69.2655C365.921 70.9474 362.925 71.7884 359.613 71.7884ZM397.586 71.7884C395.01 71.7884 392.619 71.3679 390.411 70.527C388.256 69.686 386.364 68.5034 384.735 66.9791C383.105 65.4548 381.817 63.5889 380.871 61.3814C379.978 59.1213 379.531 56.6246 379.531 53.8915C379.531 51.1583 379.978 48.6354 380.871 46.3227C381.817 44.0101 383.105 42.0127 384.735 40.3308C386.364 38.6489 388.256 37.3348 390.411 36.3887C392.619 35.4427 395.01 34.9696 397.586 34.9696C400.161 34.9696 402.526 35.3901 404.681 36.2311C406.889 37.072 408.781 38.2547 410.358 39.7789C411.987 41.3032 413.249 43.1691 414.142 45.3766C415.088 47.5842 415.561 50.0808 415.561 52.8665C415.561 55.5997 415.088 58.1489 414.142 60.5141C413.249 62.8268 411.987 64.8241 410.358 66.5061C408.781 68.1354 406.889 69.4232 404.681 70.3693C402.526 71.3154 400.161 71.7884 397.586 71.7884ZM398.847 68.8713C400.056 68.7136 401.081 68.2406 401.922 67.4521C402.763 66.6112 403.42 65.5074 403.893 64.1408C404.419 62.7217 404.76 61.2763 404.918 59.8046C405.076 58.2803 405.154 56.8612 405.154 55.5471C405.154 54.7587 405.128 53.9703 405.076 53.1819C405.023 51.9204 404.839 50.4225 404.524 48.688C404.261 46.9009 403.788 45.219 403.105 43.6421C402.421 42.0127 401.528 40.6462 400.424 39.5424C399.32 38.4386 397.927 37.8867 396.245 37.8867C395.037 38.0444 394.012 38.5437 393.171 39.3847C392.33 40.1731 391.646 41.2769 391.121 42.696C390.648 44.0626 390.332 45.508 390.175 47.0323C390.017 48.504 389.938 49.8969 389.938 51.2109C389.938 51.9993 389.964 52.7877 390.017 53.5761C390.175 55.6785 390.464 57.6758 390.884 59.568C391.305 61.4077 391.857 63.0108 392.54 64.3773C393.276 65.7439 394.117 66.8477 395.063 67.6887C396.009 68.4771 397.06 68.8713 398.216 68.8713H398.847ZM419.617 40.0943V38.5175C419.617 38.1495 419.853 37.8867 420.326 37.729C421.01 37.5714 421.824 37.3874 422.771 37.1772C423.717 36.9669 424.689 36.7567 425.688 36.5464C426.739 36.3362 427.764 36.1259 428.762 35.9157C429.761 35.7055 430.681 35.5215 431.522 35.3638C431.785 35.3112 432.021 35.285 432.231 35.285C432.442 35.2324 432.652 35.2061 432.862 35.2061C434.071 35.2061 434.649 35.8894 434.597 37.256V41.4346C435.858 39.8578 437.409 38.3861 439.248 37.0195C441.14 35.6529 443.269 34.9696 445.634 34.9696C447.895 34.9696 449.892 35.5478 451.626 36.7041C453.361 37.8604 454.57 39.6475 455.253 42.0653C455.884 41.2243 456.62 40.3834 457.461 39.5424C458.302 38.7014 459.195 37.9393 460.141 37.256C461.14 36.5727 462.191 36.0208 463.295 35.6003C464.451 35.1798 465.66 34.9696 466.922 34.9696C469.76 34.9696 472.178 35.9157 474.175 37.8079C476.172 39.6475 477.171 42.5121 477.171 46.4016V63.3524C477.171 64.0883 477.197 64.7978 477.25 65.4811C477.302 66.1119 477.434 66.69 477.644 67.2156C477.907 67.6887 478.275 68.0829 478.748 68.3982C479.221 68.661 479.878 68.7924 480.719 68.7924C481.402 68.7399 481.77 69.029 481.823 69.6597C481.928 70.2904 481.823 70.7372 481.507 71H463.926C463.61 70.7372 463.479 70.2904 463.531 69.6597C463.636 69.029 464.031 68.7399 464.714 68.7924H465.029C466.081 68.7924 466.816 68.4508 467.237 67.7675C467.71 67.0842 467.946 65.6125 467.946 63.3524V48.4514C467.946 47.5579 467.894 46.6644 467.789 45.7708C467.684 44.8773 467.473 44.0889 467.158 43.4056C466.843 42.6698 466.37 42.0916 465.739 41.6711C465.108 41.1981 464.241 40.9615 463.137 40.9615C461.928 41.0141 460.719 41.5134 459.51 42.4595C458.302 43.353 457.093 44.4831 455.884 45.8497V63.3524C455.884 65.6125 456.12 67.0842 456.593 67.7675C457.066 68.4508 457.829 68.7924 458.88 68.7924H459.195C459.878 68.7399 460.246 69.029 460.299 69.6597C460.404 70.2904 460.299 70.7372 459.984 71H442.638C442.323 70.7372 442.192 70.2904 442.244 69.6597C442.349 69.029 442.744 68.7399 443.427 68.7924H443.742C444.793 68.7924 445.529 68.4508 445.95 67.7675C446.423 67.0842 446.659 65.6125 446.659 63.3524V48.4514C446.659 47.5579 446.607 46.6644 446.502 45.7708C446.397 44.8773 446.186 44.0889 445.871 43.4056C445.556 42.6698 445.083 42.0916 444.452 41.6711C443.821 41.1981 442.954 40.9615 441.85 40.9615C440.641 41.0141 439.406 41.5134 438.145 42.4595C436.936 43.4056 435.753 44.5619 434.597 45.9285V63.4313C434.597 65.6914 434.807 67.1631 435.227 67.8464C435.7 68.4771 436.463 68.7924 437.514 68.7924H437.829C438.197 68.7924 438.46 68.8713 438.618 69.029C438.828 69.1867 438.959 69.3969 439.012 69.6597C439.064 69.9225 439.038 70.1853 438.933 70.4481C438.88 70.6584 438.775 70.8423 438.618 71H420.484C420.169 70.7372 420.037 70.2904 420.09 69.6597C420.195 69.029 420.589 68.7399 421.273 68.7924C423.06 68.7924 424.19 68.2931 424.663 67.2945C425.136 66.2433 425.372 64.9292 425.372 63.3524V42.9326C425.372 41.566 425.136 40.6724 424.663 40.252C424.19 39.7789 423.585 39.5424 422.849 39.5424C422.324 39.5424 421.772 39.6212 421.194 39.7789C420.668 39.884 420.142 39.9892 419.617 40.0943Z" fill="black"/>
<path d="M55.2539 7.23291H59.7461L61.8799 7.34521L63.4521 7.51367L66.6528 8.0752L69.0112 8.58057L70.9204 9.08594L72.7173 9.64746L74.9634 10.4897L76.9287 11.332L78.1641 11.8936L80.9717 13.2974L82.3193 14.0835L83.4424 14.7573L84.8462 15.7119L85.8008 16.3857L86.8677 17.1719L87.7661 17.9019L88.3838 18.4072L89.1138 19.0249L89.6753 19.5303L90.1245 19.9233L91.0229 20.7656L92.2021 21.9448L92.5952 22.394L93.1006 22.8994L93.4937 23.3486L93.999 23.9102L94.5044 24.5278L95.1221 25.2578L95.7397 26.0439L96.582 27.167L97.0874 27.897L98.3228 29.75L99.1089 30.9854L99.895 32.333L100.85 34.186L101.58 35.8145L102.478 38.1167L103.376 40.7559L103.938 42.8335L104.331 44.6865L104.724 46.9888L104.893 48.3926L105.005 50.1333L105.117 52.9971V56.9839L105.005 59.1177L104.836 60.9146L104.556 62.7114L104.106 65.0698L103.713 66.8105L103.264 68.4951L102.59 70.5166L102.029 71.9766L101.411 73.4927L100.962 74.5034L100.288 75.9072L99.502 77.4233L98.8281 78.6025L98.2104 79.6133L97.4243 80.8486L96.9751 81.4663L96.2451 82.5332L95.6836 83.2632L95.1782 83.8809L94.5605 84.667L93.8306 85.5654L93.1567 86.3516L92.6514 86.9131L91.8091 87.8115L90.8545 88.7661L90.4053 89.1592L89.9561 89.6084L89.5068 90.0015L88.9453 90.5068L88.3276 91.0122L87.4854 91.7422L86.5308 92.4722L85.6323 93.146L83.9478 94.269L82.937 94.8867L81.3647 95.7852L79.7925 96.6274L77.8271 97.582L76.311 98.2559L74.9634 98.8174L73.2788 99.4351L71.2573 100.109L69.1235 100.67L67.2705 101.063L65.0806 101.457L64.0698 101.569H63.6768L63.7891 101.344L64.4629 100.839L65.3613 100.109L66.4844 99.2104L67.2705 98.5366L68.7305 97.189L69.1235 96.8521L69.5166 96.4028L73.3911 92.5283L74.2896 91.8545L75.188 91.4053L76.4795 90.7876L77.7148 90.1138L79.231 89.2153L80.4663 88.4292L81.3647 87.8115L82.4316 87.0254L83.2739 86.3516L84.0601 85.7339L84.7339 85.1724L85.1831 84.7793L85.9131 84.1055L87.2607 82.7578L87.6538 82.3086L88.2153 81.6909L88.833 80.9048L89.3384 80.2871L90.0122 79.4448L90.7422 78.4341L92.2021 76.188L92.876 75.0649L93.606 73.7734L94.1675 72.7065L94.8975 71.1343L95.4028 69.9551L95.9644 68.4951L96.6382 66.4736L97.0874 64.9014L97.6489 62.2622L97.9297 60.7461L98.2666 58.3877L98.3789 57.04L98.4351 55.8047V53.9517L98.3228 51.5933L98.0981 49.6279L97.7612 47.6064L96.9751 44.2373L96.4136 42.2158L95.5151 39.6328L95.0659 38.5659L94.3359 36.9375L93.606 35.4775L92.8198 34.1299L92.0898 32.9507L91.416 31.9399L90.7422 30.9854L89.8438 29.8062L89.2261 29.02L87.9907 27.5601L87.0923 26.6055L85.6323 25.1455L85.1831 24.7524L84.9023 24.5278V24.4155L84.6777 24.3032L84.0039 23.6855L83.8916 23.6294V23.5171L83.667 23.4048L82.8809 22.7871L81.9263 22.0571L81.0278 21.4395L80.1855 20.8779L79.231 20.2603L78.3325 19.6987L77.5464 19.2495L76.311 18.5757L74.2896 17.5649L72.9419 17.0034L70.9204 16.2734L68.9551 15.7119L66.8213 15.2065L64.5752 14.7573L62.7222 14.4766L60.7568 14.252L59.2969 14.1396H56.6577L54.0186 14.3643L51.7163 14.645L49.6948 14.9819L47.561 15.4312L45.8765 15.8804L43.7988 16.5542L42.0581 17.228L40.3735 18.0142L39.3066 18.5195L38.0151 19.2495L36.8359 19.9233L35.6567 20.6533L34.7583 21.271L32.8491 22.6187L31.8945 23.4048L31.333 23.9102L30.8838 24.3032L29.7607 25.314L28.5815 26.4932L28.1885 26.9424L27.5146 27.6724L27.1216 28.1216L26.4478 28.8516L25.9424 29.4692L25.4932 30.0308L24.0332 32.1646L23.6401 32.7822L23.2471 33.3438L23.0786 33.3999L21.8433 32.6138L20.4395 31.6592L19.4287 30.9292L18.5303 30.2554L17.7441 29.6377L17.6318 29.4131L18.2495 28.4585L18.6987 27.8408L19.4287 26.8301L20.1025 25.8755L20.7202 25.0894L21.394 24.3032L21.7871 23.854L22.4048 23.1802L22.854 22.6187L23.2471 22.2256L23.6401 21.7764L24.2578 21.1025L24.8755 20.4849L25.3247 20.0918L26.167 19.3057L26.7847 18.8003L27.4023 18.2388L28.9746 17.0034L29.873 16.3296L30.8276 15.6558L32.0068 14.8696L33.186 14.1396L34.5337 13.3535L36.3867 12.3989L38.2397 11.5005L40.3735 10.6021L42.8442 9.70361L44.8657 9.08594L46.9995 8.52441L48.9648 8.0752L51.9409 7.51367L53.9624 7.28906L55.2539 7.23291Z" fill="#23A9F1"/>
<path d="M7.52441 28.9077L7.80518 29.02L8.479 29.5815L8.98438 29.9746L9.77051 30.7046L10.3882 31.21L11.1182 31.8276L12.0166 32.5015L12.9712 33.2314L14.7681 34.6914L15.6104 35.3091L16.6211 36.0391L18.1934 37.106L19.3164 37.8921L20.7202 38.8467L22.2363 39.8574L23.4717 40.6436L25.0439 41.5981L25.9985 42.1597L27.4585 43.002L28.75 43.7319L30.0977 44.4619L31.1646 45.0234L32.4561 45.6411L34.1968 46.4834L37.9028 48.168L39.9243 49.0664L41.4404 49.6841L45.4834 51.144L47.5049 51.8179L49.1895 52.3232L52.7832 53.2217L55.5347 53.8955L57.9492 54.4009L60.1392 54.7939L62.1045 55.0747L64.5752 55.2993L65.5859 55.3555H70.4712L74.2896 55.1309L76.8726 54.9062L79.0063 54.6255L82.207 54.064L83.3301 53.8394L83.5547 53.8955L83.2739 56.4785L82.937 58.6123L82.4878 61.083L81.8701 63.7222L81.1963 66.3052L80.2979 69.0566L79.5117 71.1343L78.7256 73.0435L78.0518 74.5596L77.3779 76.0195L76.8164 77.0864L75.9741 78.6587L75.2441 79.9502L74.458 81.2417L73.728 82.4209L72.9419 83.6001L72.2681 84.4985L71.7065 85.2285L71.2012 85.9023L70.4712 86.8569L69.7974 87.6431L69.1235 88.373L68.3936 89.2153L67.7197 89.9453L66.8774 90.8438L65.6982 92.0229L65.3052 92.4722L64.7998 92.9775L64.3506 93.3706L63.5645 94.1006L62.9468 94.606L62.3291 95.1675L61.7114 95.6729L60.9814 96.2905L60.3638 96.7397L58.3423 98.1997L57.5 98.7612L56.5454 99.3789L55.1978 100.165L52.7832 101.513L51.1548 102.355L49.5825 103.085L47.8418 103.871L46.3818 104.489L44.4727 105.219L42.9004 105.78L40.3174 106.623L38.5767 107.128L36.4429 107.746L35.0952 108.083L32.9614 108.532L30.7715 108.981L29.8169 109.206L29.2554 109.318V109.206L30.8276 108.532L32.2876 107.914L33.5229 107.353L34.7583 106.679L35.6567 106.173L36.5552 105.724L37.6221 105.163L38.4082 104.657L39.1943 104.208L41.4404 102.748L42.395 102.13L43.6865 101.288L44.585 100.67L45.5396 99.9404L47.3364 98.4805L48.4595 97.6382L49.3579 96.9082L50.144 96.2344L50.8179 95.6167L51.3232 95.1113L51.7725 94.7183L54.1309 92.3599L54.5239 91.9106L55.3101 91.0684L55.8154 90.4507L56.4331 89.6646L56.9946 88.9346L57.6123 88.2046L58.3423 87.25L59.0723 86.2393L59.8584 85.1724L60.5322 84.1616L61.2622 82.9824L61.8799 81.9155L62.666 80.5117L63.6768 78.5464L64.4067 76.918L65.249 74.7842L65.9229 72.875L66.5405 70.8535L67.1021 68.7197L67.5513 66.6421L68.1689 63.6099V63.2729L65.6421 63.2168L63.6768 63.1045L58.9038 62.5991L56.377 62.2061L53.5693 61.7007L50.9863 61.1953L48.8525 60.6338L46.8872 60.0723L45.0903 59.623L42.4512 58.7246L40.0366 57.9385L38.6328 57.377L37.229 56.7593L35.376 55.917L32.793 54.6255L31.8384 54.1763L30.603 53.5024L29.48 52.8848L27.9077 51.9302L25.5493 50.3579L24.707 49.7402L23.6401 48.9541L22.6294 48.168L21.9556 47.6064L21.3379 47.1011L20.5518 46.4272L20.1025 45.978L19.6533 45.585L16.5088 42.4404L16.1157 41.9912L15.7227 41.5981L15.3296 41.1489L14.8242 40.5312L14.2065 39.8013L13.4766 38.8467L12.6904 37.7798L11.4551 35.9268L10.7251 34.7476L10.0513 33.6245L9.48975 32.6138L8.70361 31.1538L7.91748 29.8062L7.52441 29.0762V28.9077Z" fill="#0F74C6"/>
<path d="M4.09912 41.542L4.37988 41.7104L4.99756 42.4404L5.72754 43.395L6.17676 43.9565L6.85059 44.7427L7.35596 45.3604L7.74902 45.7534L8.14209 46.2026L9.04053 47.1011L9.43359 47.5503L10.1636 48.2803L10.6128 48.6733L11.1182 49.1787L11.5674 49.5718L12.2412 50.2456L12.6904 50.6387L13.4204 51.3125L14.0381 51.8179L14.4873 52.2109L15.105 52.7163L15.6665 53.1655L16.5649 53.8955L17.3511 54.5132L18.3618 55.2993L19.1479 55.8608L19.9902 56.4785L21.1133 57.2085L22.4609 58.0508L23.3594 58.5562L24.314 59.1177L25.7178 59.9038L26.9531 60.5776L28.75 61.4761L29.5923 61.9253L30.8838 62.543L32.3438 63.2168L34.3091 64.0029L36.6113 64.8452L38.6328 65.519L41.8335 66.4736L43.6304 66.9229L46.4941 67.5405L48.4595 67.8774L50.9863 68.2144L53.9624 68.5513L59.4653 69.0566L59.6899 69.1689L59.6338 69.7305L59.2969 70.9097L58.5669 73.0435L58.0054 74.4473L57.3877 75.9072L56.5454 77.7603L55.8154 79.2764L55.2539 80.3433L54.4116 81.8032L53.6816 82.9824L52.7832 84.3862L51.9971 85.4531L51.3232 86.4077L50.7617 87.1377L50.144 87.8677L49.6387 88.4854L48.291 90.0576L47.6733 90.7876L46.8872 91.6299L46.4941 92.0791L45.2026 93.3706L44.585 93.876L43.7988 94.5498L43.0127 95.1675L42.395 95.6729L41.665 96.2344L40.5981 97.0205L39.812 97.582L38.8013 98.312L37.7905 98.9297L37.0044 99.4351L35.8252 100.109L34.1968 100.951L33.2983 101.4L31.9507 102.018V101.85L32.6807 101.12L33.186 100.502L33.8037 99.8843L34.1968 99.4351L34.7583 98.8174L35.2637 98.1997L35.9375 97.4136L36.3867 96.7959L37.0605 95.8413L37.6782 94.9429L38.4644 93.7075L38.9697 92.9775L39.7559 91.686L40.5981 90.2822L41.272 89.103L41.8896 87.9238L42.5073 86.6323L43.2935 84.8916L44.0796 82.8701L44.7534 80.9609L45.4272 78.5464L46.0449 76.3003L46.1011 75.9072L45.5957 75.7388L44.5288 75.458L40.7104 74.2788L39.1943 73.7734L36.7798 72.875L35.0391 72.145L33.6914 71.5273L32.5122 71.022L31.0522 70.3481L29.4238 69.562L28.3569 69.0005L27.7393 68.6636L26.6162 68.0459L24.8755 66.9229L24.0332 66.3613L23.0786 65.7437L21.1133 64.396L20.2148 63.7222L18.7549 62.5991L18.1934 62.1499L17.5757 61.6445L16.958 61.083L16.5088 60.6899L15.7788 60.0161L14.2065 58.4438L13.8135 57.9946L13.252 57.377L12.7466 56.7593L12.1289 56.0293L10.8936 54.457L10.1074 53.3901L8.98438 51.7056L8.19824 50.4702L7.52441 49.291L6.96289 48.2803L6.34521 47.0449L5.50293 45.1919L4.88525 43.6758L4.09912 41.7104V41.542Z" fill="#0F74C6"/>
<path d="M76.1426 36.1514H78.2202L80.9717 36.376L82.937 36.6567L85.127 37.0498L86.8115 37.499L88.9453 38.2852L90.1245 38.8467L91.416 39.6328L91.6968 39.9136L91.6406 39.9697L90.6299 40.082L89.2822 40.4189L88.3838 40.812L87.6538 41.2051L86.9238 41.7666L86.1938 42.4966L85.6323 43.2827L84.9585 44.6304L84.6777 45.6973L84.3408 47.2695L84.2285 47.6064L83.667 47.8872L82.3193 48.2803L79.231 49.0103L77.9956 49.2349L74.9634 49.6841L74.2896 49.7402L72.7173 49.7964H70.4712L65.8667 49.7402L64.519 49.6279L60.1953 49.1226L57.7246 48.7856L54.9731 48.3364L53.064 47.9434L52.2778 47.6626L52.334 47.438L53.6816 45.978L54.6924 44.9673L55.1416 44.5742L56.04 43.7319L56.8262 43.0581L57.9492 42.2158L59.2969 41.3174L60.4761 40.5874L61.6553 39.9136L62.8906 39.2959L64.6313 38.5659L65.979 38.0605L67.3828 37.6113L69.4604 37.0498L71.3696 36.7129L74.2334 36.3198L76.1426 36.1514Z" fill="#0F74C6"/>
<path d="M11.2305 63.8345L11.5112 63.9468L12.1289 64.4521L12.8589 65.1821L13.4766 65.6875L14.2065 66.3052L14.9927 66.9229L15.835 67.6528L16.7896 68.439L17.8564 69.1689L18.6426 69.7305L19.6533 70.4604L20.271 70.9097L20.6641 71.2466L21.6748 73.1558L22.5171 74.7842L23.1909 75.9072L23.7524 76.7495L24.3701 77.6479L25.1001 78.7148L25.9985 79.894L26.5601 80.624L27.1777 81.354L27.5708 81.8594L28.1885 82.5332L28.5815 82.9824L29.7607 84.1616L30.21 84.5547L30.8276 85.1162L31.4453 85.6216L32.3999 86.4077L33.3545 87.0815L34.0845 87.5308L35.2075 88.1484L35.0952 88.373L34.5337 89.2153L33.916 90.2261L33.2422 91.1807L32.6245 92.1353L32.1753 92.8091L31.5576 93.7075L31.333 93.9883L31.0522 93.876L30.0415 93.0898L29.5361 92.7529L29.1431 92.416L28.6377 92.0791L27.8516 91.4614L27.2339 90.8999L26.6162 90.3945L26.2231 90.0015L25.7739 89.6084L25.1001 88.9907V88.8784L24.9316 88.8223V88.71L24.707 88.5977L24.5386 88.4292V88.3169H24.4263L24.0332 87.8677L23.1348 86.9131L22.5171 86.1831L22.0117 85.6216L21.394 84.8354L20.6641 83.937L19.9341 82.9824L19.3726 82.2524L18.5864 81.0732L17.9688 80.1187L17.4634 79.3325L16.6772 78.0972L15.9473 76.7495L15.3296 75.5142L14.4873 73.6611L13.8696 72.3135L13.3643 71.022L12.6343 68.7197L11.8481 65.856L11.3428 64.3398L11.2305 64.0591V63.8345Z" fill="#23A9F1"/>
<path d="M90.5737 39.1836L90.8545 39.2959L91.6406 39.8013V39.9697L90.6299 40.082L89.5068 40.3628L89.2822 40.3066L89.6753 40.1382L89.7314 40.0259L90.293 39.9697L90.686 39.8013L90.7422 39.7451L90.7983 39.3521L90.5737 39.2397V39.1836Z" fill="#23A9F1"/>
<path d="M7.86133 45.978L8.25439 46.3149L9.04053 47.1011L9.43359 47.5503L10.1636 48.2803L10.6128 48.6733L11.1182 49.1787L11.5674 49.5718L12.1851 50.1895H12.0166L11.3989 49.5718L10.9497 49.1787L10.3882 48.6172L9.93896 48.2241L8.59131 46.8765L8.3667 46.5957L7.86133 46.0903V45.978Z" fill="#23A9F1"/>
<path d="M7.52441 28.9077L7.80518 29.02L8.479 29.5815L8.98438 29.9746L9.77051 30.7046L10.3882 31.21L10.5566 31.4346L10.332 31.3223L9.5459 30.6484L8.98438 30.1431L8.42285 29.6938L7.91748 29.3008L7.69287 29.1323L7.58057 29.1885L7.52441 28.9077Z" fill="#23A9F1"/>
<path d="M36.9482 96.0098L37.0044 96.1221L36.8359 96.459L36.7798 96.7959L36.5552 96.9082H36.4429L36.3306 97.1328L35.8813 97.6943H35.769L35.6567 97.9189L35.4883 98.0312L35.6006 97.8066L36.0498 97.2451L36.8359 96.1782L36.9482 96.0098Z" fill="#22A8F0"/>
<path d="M30.4346 108.7L30.603 108.756L30.3784 108.925L30.4346 109.037L29.4238 109.318H29.2554V109.206L30.4346 108.7Z" fill="#22A8F0"/>
<path d="M15.1611 52.8286L15.3857 52.9409L16.1719 53.5586L16.9019 54.1763L17.1826 54.457L16.9019 54.3447L16.3403 53.8394L15.6104 53.2778L15.1611 52.8848V52.8286Z" fill="#23A9F1"/>
<path d="M32.5684 101.232V101.4L32.3438 101.681L32.8491 101.457L33.186 101.4L32.9614 101.569L31.9507 102.018V101.85L32.5684 101.232Z" fill="#23A9F1"/>
</svg>
